<mxfile host="app.diagrams.net" agent="Mozilla/5.0 (Windows NT 10.0; Win64; x64) AppleWebKit/537.36 (KHTML, like Gecko) Chrome/131.0.0.0 Safari/537.36" version="24.8.6">
  <diagram name="Trang-1" id="oUNzDgmaGbbPCqabqTIR">
    <mxGraphModel grid="1" page="1" gridSize="10" guides="1" tooltips="1" connect="1" arrows="1" fold="1" pageScale="1" pageWidth="827" pageHeight="1169" math="0" shadow="0">
      <root>
        <mxCell id="0" />
        <mxCell id="1" parent="0" />
        <mxCell id="ww9kk7L3ItuLHr4RKpKk-15" value="" style="ellipse;html=1;shape=startState;fillColor=#000000;strokeColor=#ff0000;" vertex="1" parent="1">
          <mxGeometry x="105" y="-1010" width="30" height="30" as="geometry" />
        </mxCell>
        <mxCell id="ww9kk7L3ItuLHr4RKpKk-16" value="" style="edgeStyle=orthogonalEdgeStyle;html=1;verticalAlign=bottom;endArrow=open;endSize=8;strokeColor=#ff0000;rounded=0;" edge="1" parent="1" source="ww9kk7L3ItuLHr4RKpKk-15">
          <mxGeometry relative="1" as="geometry">
            <mxPoint x="105" y="-920" as="targetPoint" />
            <Array as="points">
              <mxPoint x="120" y="-950" />
              <mxPoint x="106" y="-950" />
            </Array>
          </mxGeometry>
        </mxCell>
        <mxCell id="ww9kk7L3ItuLHr4RKpKk-26" value="" style="edgeStyle=orthogonalEdgeStyle;rounded=0;orthogonalLoop=1;jettySize=auto;html=1;" edge="1" parent="1" source="ww9kk7L3ItuLHr4RKpKk-22" target="ww9kk7L3ItuLHr4RKpKk-25">
          <mxGeometry relative="1" as="geometry" />
        </mxCell>
        <mxCell id="ww9kk7L3ItuLHr4RKpKk-22" value="login" style="rounded=1;whiteSpace=wrap;html=1;arcSize=40;fontColor=#000000;fillColor=#ffffc0;strokeColor=#ff0000;" vertex="1" parent="1">
          <mxGeometry x="40" y="-920" width="120" height="40" as="geometry" />
        </mxCell>
        <mxCell id="ww9kk7L3ItuLHr4RKpKk-28" value="" style="edgeStyle=orthogonalEdgeStyle;rounded=0;orthogonalLoop=1;jettySize=auto;html=1;" edge="1" parent="1" source="ww9kk7L3ItuLHr4RKpKk-25" target="ww9kk7L3ItuLHr4RKpKk-27">
          <mxGeometry relative="1" as="geometry" />
        </mxCell>
        <mxCell id="ww9kk7L3ItuLHr4RKpKk-25" value="show menu" style="whiteSpace=wrap;html=1;fillColor=#ffffc0;strokeColor=#ff0000;fontColor=#000000;rounded=1;arcSize=40;" vertex="1" parent="1">
          <mxGeometry x="200" y="-930" width="120" height="60" as="geometry" />
        </mxCell>
        <mxCell id="ww9kk7L3ItuLHr4RKpKk-30" value="" style="edgeStyle=orthogonalEdgeStyle;rounded=0;orthogonalLoop=1;jettySize=auto;html=1;" edge="1" parent="1" source="ww9kk7L3ItuLHr4RKpKk-27" target="ww9kk7L3ItuLHr4RKpKk-29">
          <mxGeometry relative="1" as="geometry" />
        </mxCell>
        <mxCell id="ww9kk7L3ItuLHr4RKpKk-27" value="players choose option in menu" style="whiteSpace=wrap;html=1;fillColor=#ffffc0;strokeColor=#ff0000;fontColor=#000000;rounded=1;arcSize=40;" vertex="1" parent="1">
          <mxGeometry x="380" y="-925" width="140" height="50" as="geometry" />
        </mxCell>
        <mxCell id="ww9kk7L3ItuLHr4RKpKk-29" value="set up battle" style="whiteSpace=wrap;html=1;fillColor=#ffffc0;strokeColor=#ff0000;fontColor=#000000;rounded=1;arcSize=40;" vertex="1" parent="1">
          <mxGeometry x="590" y="-930" width="120" height="60" as="geometry" />
        </mxCell>
        <mxCell id="ww9kk7L3ItuLHr4RKpKk-40" style="edgeStyle=orthogonalEdgeStyle;rounded=0;orthogonalLoop=1;jettySize=auto;html=1;exitX=0.5;exitY=1;exitDx=0;exitDy=0;entryX=0.497;entryY=0.567;entryDx=0;entryDy=0;entryPerimeter=0;" edge="1" parent="1" source="ww9kk7L3ItuLHr4RKpKk-29">
          <mxGeometry relative="1" as="geometry">
            <mxPoint x="649.4000000000001" y="-824.33" as="targetPoint" />
          </mxGeometry>
        </mxCell>
        <mxCell id="ww9kk7L3ItuLHr4RKpKk-81" value="" style="edgeStyle=orthogonalEdgeStyle;rounded=0;orthogonalLoop=1;jettySize=auto;html=1;" edge="1" parent="1" source="ww9kk7L3ItuLHr4RKpKk-44" target="ww9kk7L3ItuLHr4RKpKk-80">
          <mxGeometry relative="1" as="geometry" />
        </mxCell>
        <mxCell id="ww9kk7L3ItuLHr4RKpKk-44" value="player 1 set ship location" style="rounded=1;whiteSpace=wrap;html=1;arcSize=40;fontColor=#000000;fillColor=#ffffc0;strokeColor=#ff0000;" vertex="1" parent="1">
          <mxGeometry x="580" y="-840" width="120" height="40" as="geometry" />
        </mxCell>
        <mxCell id="ww9kk7L3ItuLHr4RKpKk-62" value="" style="edgeStyle=orthogonalEdgeStyle;rounded=0;orthogonalLoop=1;jettySize=auto;html=1;" edge="1" parent="1" source="ww9kk7L3ItuLHr4RKpKk-60" target="ww9kk7L3ItuLHr4RKpKk-61">
          <mxGeometry relative="1" as="geometry" />
        </mxCell>
        <mxCell id="ww9kk7L3ItuLHr4RKpKk-60" value="two players take turns performing actions" style="rounded=1;whiteSpace=wrap;html=1;arcSize=40;fontColor=#000000;fillColor=#ffffc0;strokeColor=#ff0000;" vertex="1" parent="1">
          <mxGeometry x="530" y="-630" width="170" height="40" as="geometry" />
        </mxCell>
        <mxCell id="ww9kk7L3ItuLHr4RKpKk-64" value="" style="edgeStyle=orthogonalEdgeStyle;rounded=0;orthogonalLoop=1;jettySize=auto;html=1;" edge="1" parent="1" source="ww9kk7L3ItuLHr4RKpKk-61" target="ww9kk7L3ItuLHr4RKpKk-63">
          <mxGeometry relative="1" as="geometry" />
        </mxCell>
        <mxCell id="ww9kk7L3ItuLHr4RKpKk-61" value="view board&amp;nbsp;" style="whiteSpace=wrap;html=1;fillColor=#ffffc0;strokeColor=#ff0000;fontColor=#000000;rounded=1;arcSize=40;" vertex="1" parent="1">
          <mxGeometry x="530" y="-560" width="140" height="60" as="geometry" />
        </mxCell>
        <mxCell id="ww9kk7L3ItuLHr4RKpKk-66" value="" style="edgeStyle=orthogonalEdgeStyle;rounded=0;orthogonalLoop=1;jettySize=auto;html=1;" edge="1" parent="1" source="ww9kk7L3ItuLHr4RKpKk-63" target="ww9kk7L3ItuLHr4RKpKk-65">
          <mxGeometry relative="1" as="geometry" />
        </mxCell>
        <mxCell id="ww9kk7L3ItuLHr4RKpKk-63" value="attack" style="whiteSpace=wrap;html=1;fillColor=#ffffc0;strokeColor=#ff0000;fontColor=#000000;rounded=1;arcSize=40;" vertex="1" parent="1">
          <mxGeometry x="320" y="-560" width="120" height="60" as="geometry" />
        </mxCell>
        <mxCell id="ww9kk7L3ItuLHr4RKpKk-68" value="" style="edgeStyle=orthogonalEdgeStyle;rounded=0;orthogonalLoop=1;jettySize=auto;html=1;entryX=0.5;entryY=0;entryDx=0;entryDy=0;" edge="1" parent="1" source="ww9kk7L3ItuLHr4RKpKk-65" target="ww9kk7L3ItuLHr4RKpKk-75">
          <mxGeometry relative="1" as="geometry">
            <mxPoint x="180" y="-480" as="targetPoint" />
          </mxGeometry>
        </mxCell>
        <mxCell id="ww9kk7L3ItuLHr4RKpKk-65" value="check that attack turn" style="whiteSpace=wrap;html=1;fillColor=#ffffc0;strokeColor=#ff0000;fontColor=#000000;rounded=1;arcSize=40;" vertex="1" parent="1">
          <mxGeometry x="80" y="-560" width="160" height="60" as="geometry" />
        </mxCell>
        <mxCell id="ww9kk7L3ItuLHr4RKpKk-75" value="Condition" style="rhombus;whiteSpace=wrap;html=1;fontColor=#000000;fillColor=#ffffc0;strokeColor=#ff0000;" vertex="1" parent="1">
          <mxGeometry x="120" y="-470" width="80" height="40" as="geometry" />
        </mxCell>
        <mxCell id="ww9kk7L3ItuLHr4RKpKk-76" value="no" style="edgeStyle=orthogonalEdgeStyle;html=1;align=left;verticalAlign=bottom;endArrow=open;endSize=8;strokeColor=#ff0000;rounded=0;" edge="1" parent="1" source="ww9kk7L3ItuLHr4RKpKk-75" target="ww9kk7L3ItuLHr4RKpKk-84">
          <mxGeometry x="-1" relative="1" as="geometry">
            <mxPoint x="300" y="-450" as="targetPoint" />
            <Array as="points">
              <mxPoint x="260" y="-450" />
              <mxPoint x="260" y="-449" />
              <mxPoint x="300" y="-449" />
            </Array>
          </mxGeometry>
        </mxCell>
        <mxCell id="ww9kk7L3ItuLHr4RKpKk-77" value="yes" style="edgeStyle=orthogonalEdgeStyle;html=1;align=left;verticalAlign=top;endArrow=open;endSize=8;strokeColor=#ff0000;rounded=0;" edge="1" parent="1" source="ww9kk7L3ItuLHr4RKpKk-75" target="ww9kk7L3ItuLHr4RKpKk-83">
          <mxGeometry x="-0.6694" y="-20" relative="1" as="geometry">
            <mxPoint x="160" y="-370" as="targetPoint" />
            <mxPoint as="offset" />
          </mxGeometry>
        </mxCell>
        <mxCell id="ww9kk7L3ItuLHr4RKpKk-82" style="edgeStyle=orthogonalEdgeStyle;rounded=0;orthogonalLoop=1;jettySize=auto;html=1;" edge="1" parent="1" source="ww9kk7L3ItuLHr4RKpKk-80" target="ww9kk7L3ItuLHr4RKpKk-60">
          <mxGeometry relative="1" as="geometry" />
        </mxCell>
        <mxCell id="ww9kk7L3ItuLHr4RKpKk-80" value="player 2 set ship location" style="rounded=1;whiteSpace=wrap;html=1;arcSize=40;fontColor=#000000;fillColor=#ffffc0;strokeColor=#ff0000;" vertex="1" parent="1">
          <mxGeometry x="580" y="-760" width="120" height="40" as="geometry" />
        </mxCell>
        <mxCell id="ww9kk7L3ItuLHr4RKpKk-85" value="" style="edgeStyle=orthogonalEdgeStyle;rounded=0;orthogonalLoop=1;jettySize=auto;html=1;" edge="1" parent="1" source="ww9kk7L3ItuLHr4RKpKk-83" target="ww9kk7L3ItuLHr4RKpKk-84">
          <mxGeometry relative="1" as="geometry" />
        </mxCell>
        <mxCell id="ww9kk7L3ItuLHr4RKpKk-83" value="inform" style="rounded=1;whiteSpace=wrap;html=1;arcSize=40;fontColor=#000000;fillColor=#ffffc0;strokeColor=#ff0000;" vertex="1" parent="1">
          <mxGeometry x="105" y="-390" width="120" height="40" as="geometry" />
        </mxCell>
        <mxCell id="ww9kk7L3ItuLHr4RKpKk-87" value="" style="edgeStyle=orthogonalEdgeStyle;rounded=0;orthogonalLoop=1;jettySize=auto;html=1;" edge="1" parent="1" source="ww9kk7L3ItuLHr4RKpKk-84" target="ww9kk7L3ItuLHr4RKpKk-86">
          <mxGeometry relative="1" as="geometry" />
        </mxCell>
        <mxCell id="ww9kk7L3ItuLHr4RKpKk-84" value="end turn" style="whiteSpace=wrap;html=1;fillColor=#ffffc0;strokeColor=#ff0000;fontColor=#000000;rounded=1;arcSize=40;" vertex="1" parent="1">
          <mxGeometry x="260" y="-420" width="120" height="60" as="geometry" />
        </mxCell>
        <mxCell id="ww9kk7L3ItuLHr4RKpKk-97" value="" style="edgeStyle=orthogonalEdgeStyle;rounded=0;orthogonalLoop=1;jettySize=auto;html=1;" edge="1" parent="1" source="ww9kk7L3ItuLHr4RKpKk-86" target="ww9kk7L3ItuLHr4RKpKk-94">
          <mxGeometry relative="1" as="geometry" />
        </mxCell>
        <mxCell id="ww9kk7L3ItuLHr4RKpKk-86" value="check rival ship&amp;nbsp;was ruined" style="whiteSpace=wrap;html=1;fillColor=#ffffc0;strokeColor=#ff0000;fontColor=#000000;rounded=1;arcSize=40;" vertex="1" parent="1">
          <mxGeometry x="460" y="-420" width="120" height="60" as="geometry" />
        </mxCell>
        <mxCell id="ww9kk7L3ItuLHr4RKpKk-94" value="Condition" style="rhombus;whiteSpace=wrap;html=1;fontColor=#000000;fillColor=#ffffc0;strokeColor=#ff0000;" vertex="1" parent="1">
          <mxGeometry x="480" y="-320" width="80" height="40" as="geometry" />
        </mxCell>
        <mxCell id="ww9kk7L3ItuLHr4RKpKk-95" value="no" style="edgeStyle=orthogonalEdgeStyle;html=1;align=left;verticalAlign=bottom;endArrow=open;endSize=8;strokeColor=#ff0000;rounded=0;entryX=1;entryY=1;entryDx=0;entryDy=0;" edge="1" parent="1" source="ww9kk7L3ItuLHr4RKpKk-94" target="ww9kk7L3ItuLHr4RKpKk-60">
          <mxGeometry x="-1" relative="1" as="geometry">
            <mxPoint x="660" y="-300" as="targetPoint" />
            <Array as="points">
              <mxPoint x="700" y="-300" />
            </Array>
          </mxGeometry>
        </mxCell>
        <mxCell id="ww9kk7L3ItuLHr4RKpKk-96" value="yes" style="edgeStyle=orthogonalEdgeStyle;html=1;align=left;verticalAlign=top;endArrow=open;endSize=8;strokeColor=#ff0000;rounded=0;" edge="1" parent="1" source="ww9kk7L3ItuLHr4RKpKk-94" target="ww9kk7L3ItuLHr4RKpKk-98">
          <mxGeometry x="-1" relative="1" as="geometry">
            <mxPoint x="520" y="-220" as="targetPoint" />
          </mxGeometry>
        </mxCell>
        <mxCell id="ww9kk7L3ItuLHr4RKpKk-100" value="" style="edgeStyle=orthogonalEdgeStyle;rounded=0;orthogonalLoop=1;jettySize=auto;html=1;" edge="1" parent="1" source="ww9kk7L3ItuLHr4RKpKk-98" target="ww9kk7L3ItuLHr4RKpKk-99">
          <mxGeometry relative="1" as="geometry" />
        </mxCell>
        <mxCell id="ww9kk7L3ItuLHr4RKpKk-98" value="end" style="rounded=1;whiteSpace=wrap;html=1;arcSize=40;fontColor=#000000;fillColor=#ffffc0;strokeColor=#ff0000;" vertex="1" parent="1">
          <mxGeometry x="460" y="-240" width="120" height="40" as="geometry" />
        </mxCell>
        <mxCell id="ww9kk7L3ItuLHr4RKpKk-103" value="" style="edgeStyle=orthogonalEdgeStyle;rounded=0;orthogonalLoop=1;jettySize=auto;html=1;" edge="1" parent="1" source="ww9kk7L3ItuLHr4RKpKk-99" target="ww9kk7L3ItuLHr4RKpKk-101">
          <mxGeometry relative="1" as="geometry" />
        </mxCell>
        <mxCell id="ww9kk7L3ItuLHr4RKpKk-99" value="show result" style="whiteSpace=wrap;html=1;fillColor=#ffffc0;strokeColor=#ff0000;fontColor=#000000;rounded=1;arcSize=40;" vertex="1" parent="1">
          <mxGeometry x="270" y="-250" width="120" height="60" as="geometry" />
        </mxCell>
        <mxCell id="ww9kk7L3ItuLHr4RKpKk-107" value="" style="edgeStyle=orthogonalEdgeStyle;rounded=0;orthogonalLoop=1;jettySize=auto;html=1;" edge="1" parent="1" source="ww9kk7L3ItuLHr4RKpKk-101" target="ww9kk7L3ItuLHr4RKpKk-108">
          <mxGeometry relative="1" as="geometry">
            <mxPoint x="280" y="-50" as="targetPoint" />
            <Array as="points">
              <mxPoint x="320" y="-90" />
              <mxPoint x="280" y="-90" />
            </Array>
          </mxGeometry>
        </mxCell>
        <mxCell id="ww9kk7L3ItuLHr4RKpKk-111" value="" style="edgeStyle=orthogonalEdgeStyle;rounded=0;orthogonalLoop=1;jettySize=auto;html=1;" edge="1" parent="1" source="ww9kk7L3ItuLHr4RKpKk-101" target="ww9kk7L3ItuLHr4RKpKk-112">
          <mxGeometry relative="1" as="geometry">
            <mxPoint x="390" y="-90" as="targetPoint" />
            <Array as="points">
              <mxPoint x="350" y="-80" />
              <mxPoint x="390" y="-80" />
              <mxPoint x="390" y="-40" />
            </Array>
          </mxGeometry>
        </mxCell>
        <mxCell id="ww9kk7L3ItuLHr4RKpKk-101" value="" style="shape=line;html=1;strokeWidth=6;strokeColor=#ff0000;" vertex="1" parent="1">
          <mxGeometry x="260" y="-140" width="150" height="10" as="geometry" />
        </mxCell>
        <mxCell id="ww9kk7L3ItuLHr4RKpKk-108" value="go back to menu" style="rounded=1;whiteSpace=wrap;html=1;arcSize=40;fontColor=#000000;fillColor=#ffffc0;strokeColor=#ff0000;" vertex="1" parent="1">
          <mxGeometry x="220" y="-70" width="120" height="40" as="geometry" />
        </mxCell>
        <mxCell id="ww9kk7L3ItuLHr4RKpKk-112" value="logout" style="rounded=1;whiteSpace=wrap;html=1;arcSize=40;fontColor=#000000;fillColor=#ffffc0;strokeColor=#ff0000;" vertex="1" parent="1">
          <mxGeometry x="414" y="-60" width="120" height="40" as="geometry" />
        </mxCell>
      </root>
    </mxGraphModel>
  </diagram>
</mxfile>
